# xmcd
#
# Track frame offsets:
#	150
#	18150
#	31687
#	44137
#	82650
#	96112
#	112500
#	124612
#	139725
#	162075
#	181312
#	203175
#	217350
#	243412
#
# Disc length: 3440 seconds
# Revision: 0
# Processed by: cddbd v1.5.2PL0 Copyright (c) Steve Scherf et al.
# Submitted via: dBpowerAMP V12.0
#
DISCID=b00d6e0e
DTITLE=Tony Trischka - Double Banjo Bluegrass Spectacular
DYEAR=2007
DGENRE=Bluegrass
TTITLE0=Farewell Blues (with Earl Scruggs)
TTITLE1=Bon Aqua Blues (with Kenny Ingram)
TTITLE2=Fox on the Run (with Tom Adams)
TTITLE3=Twilight Kingdom (with Béla Fleck)
TTITLE4=Run Mountain (with Noam Pikelny)
TTITLE5=Escher's Waltz (with Alison Brown)
TTITLE6=Doggy Salt (with Scott Vestal)
TTITLE7=The Crow (with Steve Martin)
TTITLE8=Ivory Toad of Catalan (with Béla Fleck)
TTITLE9=Arcadia (with Alison Brown)
TTITLE10=Old Cane Pole (with Bill Emerson)
TTITLE11=Live and Let Live (with Tom Adams)
TTITLE12=Armando's Children (with Béla Fleck)
TTITLE13=Plunkin' Rag (with Steve Martin)
EXTD=
EXTT0=
EXTT1=
EXTT2=
EXTT3=
EXTT4=
EXTT5=
EXTT6=
EXTT7=
EXTT8=
EXTT9=
EXTT10=
EXTT11=
EXTT12=
EXTT13=
PLAYORDER=
